<svg xmlns="http://www.w3.org/2000/svg" viewBox="0 0 170 37"><style type="text/css">
	.st0{fill:#FFFFFF;}
</style><path class="st0" d="M71.4 25.8c-3.4 0-6-2.3-6-5.3 0-3.4 2.6-4.2 4-4.5 -0.8-0.5-1.3-1.2-1.3-2.3 0-1.4 1.2-2.8 3.3-2.8 2.1 0 3.1 1.7 3.1 2.1 0 0.1-0.1 0.2-0.2 0.2 -0.3 0-0.9-1-2.3-1s-2.5 0.9-2.5 2.1c0 0.7 0.2 1.2 0.5 1.7 0.7 0.1 2.6 0.9 2.6 1.6 0 0.1-0.1 0.2-0.2 0.2 -0.2 0-0.7-0.3-1.4-0.3 -2.1 0-3.3 1.4-3.3 3.5 0 2.5 1.9 4.2 4.3 4.2 2.8 0 4.3-1.9 4.3-3.5 0-1.2-0.6-1.9-0.9-2.3 -0.3 0.2-1.1 0.7-1.8 1.3 -1 0.7-1.2 1.4-1.3 1.9 -0.1 0.6-0.1 0.8-0.2 0.8 -0.3 0-0.4-0.8-0.4-1.2 0-2.6 1.5-3.1 3.5-4.4 2.4-1.5 3.1-1.7 3.1-2.4 -0.1 0.1-0.4 0.2-0.8 0.2 -0.7 0-1-0.4-1-0.9 0-0.6 0.6-1 1.1-1 0.8 0 1.3 0.7 1.3 1.5 0 1.9-1.7 3.1-2.8 3.8 0.3 0.5 0.9 1.2 0.9 2.4C77 24.2 74.4 25.8 71.4 25.8"/><path class="st0" d="M5.3 19.2c-0.2-0.3-0.3-0.4-0.3-0.7 0-0.1 0.1-0.2 0.3-0.2s0.8 0.1 1.3 0.1c2.1 0 3.9-0.6 3.9-2.7 0-2.5-2.2-3.9-4.3-3.9 -0.8 0-1.3 0.2-1.7 0.2 -0.1 1.6-0.1 4.5-0.1 6.4 0 1.8 0 4.8 0.1 6.4 0.3 0 1.5 0.1 2 0.2 0.1 0 0.1 0.1 0.1 0.2s-0.1 0.2-0.2 0.2c-0.2 0-1.5-0.1-3.1-0.1 -1.8 0-3 0.1-3.1 0.1 -0.1 0-0.2-0.1-0.2-0.2s0.1-0.1 0.1-0.2c0.4-0.2 1.7-0.2 2-0.2 0.1-1.5 0.1-4.4 0.1-6.4 0-2 0-4.9-0.1-6.4 -0.3 0-1.6-0.1-2-0.2C0 11.8 0 11.7 0 11.6c0-0.1 0.1-0.2 0.2-0.2 0.4 0 2.4 0.1 3.2 0.1s2.6-0.1 3.9-0.1c2.6 0 5.5 0.7 5.5 3.4 0 2.9-3 3.8-4.9 4l3.1 4.3c0.7 0.9 1.2 1.7 2 1.7 0.6 0 0.7-0.2 0.9-0.2 0.1 0 0.2 0.1 0.2 0.2 0 0.3-1.2 1.1-2.5 1.1s-1.9-0.9-2.7-1.9L5.3 19.2z"/><path class="st0" d="M30.8 18.4c0 3.8-3.1 7.3-7.6 7.3 -5.3 0-8.1-3-8.1-7.3 0-4.5 3.8-7.3 8.1-7.3C28 11.1 30.8 14.2 30.8 18.4M28 18.4c0-2.6-1-6.8-4.9-6.8 -3.7 0-5.3 3-5.3 6.8 0 2.7 1.1 6.8 5.3 6.8C26.7 25.2 28 21.5 28 18.4"/><path class="st0" d="M42.7 15.3c0 0.3 0 0.4-0.2 0.4 -0.3 0-0.3-1.3-0.3-1.6 -1.1-0.9-2.5-1.7-4.6-1.7 -1.3 0-3.7 0.3-3.7 2.4 0 2.8 4.5 2 6.9 2.8 1.7 0.6 2.6 1.8 2.6 3.7 0 2.9-2.2 4.5-5.4 4.5 -1.7 0-2.5-0.2-4.1-0.8 -0.1 0.4-0.1 1.8-0.4 1.8 -0.1 0-0.2-0.1-0.2-0.2 0-0.3 0.1-1.9 0.1-2.8 0-1-0.1-2.8-0.1-3 0-0.1 0-0.2 0.1-0.2 0.3 0 0.4 1.1 0.4 1.8 1.5 1.2 2.9 2.1 5.3 2.1 1.9 0 3.5-0.6 3.5-2.1 0-3.2-5.6-2.1-7.6-3.4 -1.1-0.7-1.8-2.1-1.8-3.5 0-2.8 2.5-4.3 5.2-4.3 1.7 0 2.5 0.2 3.9 0.7 0.1-1 0.2-1.7 0.4-1.7 0.1 0 0.2 0.1 0.2 0.2 0 0.1-0.2 1.9-0.2 2.8v2H42.7z"/><path class="st0" d="M49.5 18.5c0 1.9 0 4.7 0.1 6.2 0.3 0 0.7 0.1 1 0 2-0.1 4.8-0.3 6.3-1 0.1-0.4 0.1-1.2 0.2-1.5 0-0.1 0.1-0.2 0.2-0.2 0.2 0 0.2 0.1 0.2 0.3 0 0.2-0.1 1-0.1 1.7s0.1 1.6 0.1 1.9c0 0.1-0.1 0.3-0.2 0.3 -0.1 0-0.2-0.1-0.2-0.2C57 25.8 57 25.6 57 25.3c-1.5-0.2-2.9-0.3-6.3-0.3 -1.5 0-2.8 0-3.7 0.1 -0.9 0-1.6 0.1-1.7 0.1 -0.1 0-0.2-0.1-0.2-0.2 0-0.1 0.1-0.1 0.1-0.2 0.4-0.1 1.7-0.2 2-0.2 0.1-1.5 0.1-4.4 0.1-6.4s0-4.9-0.1-6.4c-0.3 0-1.6-0.1-2-0.2 -0.1 0-0.1-0.1-0.1-0.2s0.1-0.2 0.2-0.2 0.8 0 1.7 0.1c0.9 0 2.2 0.1 3.7 0.1 3 0 4.6-0.1 6.2-0.2 0-0.3 0.1-0.7 0.2-0.8 0-0.1 0.1-0.1 0.2-0.1s0.2 0.1 0.2 0.3c0 0.3-0.1 1.2-0.1 1.8 0 0.7 0.1 1.5 0.1 1.9 0 0.2-0.1 0.3-0.2 0.3 -0.1 0-0.2-0.1-0.2-0.2 -0.1-0.4-0.2-1.1-0.2-1.5 -1.2-0.7-4-0.9-6.1-1 -0.3 0-0.7 0-1 0 -0.3 1.5-0.3 4.3-0.3 6.3h1.1c1.3 0 4.4-0.3 5.5-0.8 0-0.3 0.1-0.8 0.2-1.2 0-0.1 0.1-0.1 0.2-0.1 0.1 0 0.2 0.1 0.2 0.2 0 0.2-0.1 0.9-0.1 2 0 1.1 0.1 1.9 0.1 2.2 0 0.1 0 0.2-0.2 0.2 -0.1 0-0.1 0-0.2-0.1 -0.2-0.3-0.2-1.2-0.3-1.6 -1.1-0.3-4-0.6-5.5-0.6C50.5 18.5 49.5 18.5 49.5 18.5z"/><path class="st0" d="M98.5 16.6c0 0.2 0 0.3-0.2 0.3 -0.3 0-0.3-1.6-0.3-2 -0.6-0.9-1.8-3.2-4.6-3.2 -3.8 0-5 3.6-5 6.8 0 3.4 1.7 6.4 5.3 6.4 3.5 0 4.7-2.4 5.2-2.4 0.1 0 0.1 0 0.1 0.1 0 0.4-2.1 3.1-5.9 3.1 -5.3 0-7.2-3.7-7.2-6.8 0-4.8 3.8-7.6 7.6-7.6 2.6 0 3.7 0.7 4.7 1.1 0.2-1.2 0.2-1.9 0.6-1.9 0.1 0 0.2 0.1 0.2 0.2 0 0.1-0.3 2.9-0.3 3.8L98.5 16.6 98.5 16.6z"/><path class="st0" d="M106 19.3c-0.2-0.3-0.3-0.4-0.3-0.7 0-0.1 0.1-0.2 0.3-0.2s0.8 0.1 1.3 0.1c2.1 0 3.9-0.6 3.9-2.7 0-2.5-2.2-3.9-4.3-3.9 -0.8 0-1.3 0.2-1.7 0.2 -0.1 1.6-0.1 4.5-0.1 6.4 0 1.8 0 4.8 0.1 6.4 0.3 0 1.5 0.1 2 0.2 0.1 0 0.1 0.1 0.1 0.2 0 0.1-0.1 0.2-0.2 0.2 -0.2 0-1.5-0.1-3.1-0.1 -1.8 0-3 0.1-3.1 0.1 -0.1 0-0.2-0.1-0.2-0.2 0-0.1 0.1-0.1 0.1-0.2 0.4-0.2 1.7-0.2 2-0.2 0.1-1.5 0.1-4.4 0.1-6.4s0-4.9-0.1-6.4c-0.3 0-1.6-0.1-2-0.2 -0.1 0-0.1-0.1-0.1-0.2 0-0.1 0.1-0.2 0.2-0.2 0.4 0 2.4 0.1 3.2 0.1s2.6-0.1 3.9-0.1c2.6 0 5.5 0.7 5.5 3.4 0 2.9-3 3.8-4.9 4l3.1 4.3c0.7 0.9 1.2 1.7 2 1.7 0.6 0 0.8-0.2 0.9-0.2 0.1 0 0.2 0.1 0.2 0.2 0 0.3-1.2 1.1-2.5 1.1 -1.2 0-1.9-0.9-2.7-1.9L106 19.3z"/><path class="st0" d="M131.7 18.5c0 3.8-3.1 7.3-7.6 7.3 -5.3 0-8.1-3-8.1-7.3 0-4.5 3.8-7.3 8.1-7.3C128.9 11.2 131.7 14.4 131.7 18.5M128.9 18.5c0-2.6-1-6.8-4.9-6.8 -3.7 0-5.3 3-5.3 6.8 0 2.7 1.1 6.8 5.3 6.8C127.5 25.3 128.9 21.6 128.9 18.5"/><path class="st0" d="M143.2 16.5L143.2 16.5c0.2-0.9 0.9-3.4 1-4.3 -0.1 0-0.8-0.1-1-0.2 -0.1 0-0.1-0.1-0.1-0.2s0.1-0.2 0.2-0.2c0.2 0 1.9 0.1 4.3 0.1 2.9 0 5-0.1 5.3-0.1 0.1 0 0.2 0.1 0.2 0.2 0 0.1-0.1 0.1-0.1 0.2 -0.3 0.1-1.3 0.2-1.6 0.2 -1.6 2.8-4.8 10.2-5.9 12.9 -0.1 0.4-0.2 0.8-0.6 0.8 -0.2 0-0.3-0.4-0.7-1l-2-4.9c-0.6 1.5-1.8 4.4-2.2 5.5 -0.1 0.3-0.1 0.6-0.4 0.6 -0.2 0-0.2-0.2-0.4-0.4l-5.5-13.1c-0.2 0-1.3-0.1-1.7-0.2 -0.1 0-0.1-0.1-0.1-0.2s0.1-0.2 0.2-0.2c0.3 0 2.2 0.1 5.3 0.1 2.9 0 4.8-0.1 5-0.1 0.1 0 0.2 0.1 0.2 0.2 0 0.1-0.1 0.1-0.1 0.2 -0.2 0.1-0.7 0.1-0.9 0.1L143.2 16.5zM142 19.1l-2.8-6.9h-2.8l4.1 10.6L142 19.1zM145.8 22.9c0.8-1.7 1.6-4 2.5-6.3 0.8-2.1 1.2-3.7 1.3-4.4h-3.7c-0.6 1-1.8 3.8-2.4 5L145.8 22.9z"/><path class="st0" d="M166.8 18.7c0-2.6-0.2-5.3-0.4-6.6 -0.3 0-1.7-0.1-2.2-0.2 -0.1 0-0.1-0.1-0.1-0.2 0-0.1 0.1-0.2 0.2-0.2 0.1 0 1.3 0.1 3 0.1 1.5 0 2.5-0.1 2.6-0.1 0.1 0 0.2 0.1 0.2 0.2 0 0.1-0.1 0.1-0.1 0.2 -0.4 0.1-1.5 0.2-1.8 0.2 -0.3 1.3-0.6 4-0.6 6.6 0 4 0.1 6.6 0.1 6.8 0 0.1 0 0.2-0.1 0.2 -0.2 0-0.2-0.1-3.6-3.9l-6.6-7.5c0 5.8 0.2 8.2 0.6 10.5 0.3 0 1.7 0.1 2.2 0.2 0.1 0 0.1 0.1 0.1 0.2 0 0.1-0.1 0.2-0.2 0.2s-1.3-0.1-3-0.1c-1.3 0-2.5 0.1-2.6 0.1 -0.1 0-0.2-0.1-0.2-0.2 0-0.1 0.1-0.1 0.1-0.2 0.4-0.1 1.5-0.2 1.8-0.2 0.3-2.4 0.6-4.6 0.6-11.1 -0.8-0.8-1.5-1.5-2.2-1.7 -0.3-0.1-0.6-0.1-0.6-0.3 0-0.1 0.1-0.2 0.3-0.2 0.3 0 1 0.1 1.8 0.1 0.4 0 1.2-0.1 1.7-0.1l9.2 10.3v-3.1H166.8z"/></svg>