<svg xmlns="http://www.w3.org/2000/svg" viewBox="0 0 170 130"><style type="text/css">
	.st0{fill:#273640;}
</style><path class="st0" d="M85.1 88.7L85.1 88.7c-28.8 0.6-38.7 3.7-40.7 3.8 -1.1 1.6 0.4 3 0.4 3s17.5-3.7 40.3-3.6H85c22.8-0.1 40.3 3.6 40.3 3.6s1.5-1.2 0.4-3C123.8 92.5 113.8 89.4 85.1 88.7z"/><path class="st0" d="M88.3 18.2l6.9 1.5v-7.2l-7.1 1.7c0.4 0.6 0.6 1.2 0.6 2.1C88.8 17.1 88.7 17.5 88.3 18.2z"/><path class="st0" d="M85 18.5c1.2 0 2.2-1 2.2-2.2s-1-2.2-2.2-2.2c-1.2 0-2.2 1-2.2 2.2S83.7 18.5 85 18.5z"/><path class="st0" d="M86.1 12.7L88 2.9H81l2.6 9.8c0.4-0.1 0.9-0.2 1.2-0.2C85.4 12.5 85.7 12.5 86.1 12.7z"/><path class="st0" d="M81.5 40.1v27.8c2.4-0.1 3.6-0.1 3.6-0.1H85c0 0 1.2 0 3.3 0.1V40.1c-0.6-0.2-2.4-0.6-3.5-0.6C83.9 39.5 82.1 40 81.5 40.1zM84.9 66.3c-1.1 0-2-0.9-2-2 0-1.1 0.9-2 2-2 1.1 0 2 0.9 2 2C86.7 65.4 85.9 66.3 84.9 66.3zM84.9 61c-1.1 0-2-0.9-2-2 0-1.1 0.9-2 2-2 1.1 0 2 0.9 2 2S86 61 84.9 61zM85 55.6c-1.1 0-2-0.9-2-2 0-1.1 0.9-2 2-2 1.1 0 2 0.9 2 2C86.8 54.8 86 55.6 85 55.6zM83 48.4c0-1.1 0.9-2 2-2 1.1 0 2 0.9 2 2 0 1.1-0.9 2-2 2C83.9 50.4 83 49.4 83 48.4zM86.8 43.1c0 1.1-0.9 2-2 2 -1.1 0-2-0.9-2-2s1-2 2-2C85.9 41.1 86.8 42 86.8 43.1z"/><path class="st0" d="M83.5 43.1c0 0.7 0.6 1.4 1.4 1.4s1.4-0.6 1.4-1.4 -0.6-1.4-1.4-1.4S83.5 42.4 83.5 43.1z"/><path class="st0" d="M85 52.4c-0.7 0-1.4 0.6-1.4 1.4s0.6 1.4 1.4 1.4 1.4-0.6 1.4-1.4S85.7 52.4 85 52.4z"/><path class="st0" d="M85.1 28.2c-0.1 0-0.2 0-0.2 0 -0.6-0.2-1.4-0.5-2-0.5 -0.5 0-0.9 0.1-1.1 0.4 -0.6 0.7-0.4 2.6 0.5 4.6 1 2.1 2.2 3.3 2.9 3.2 0.9 0 2.4-1.9 3.1-4 0.7-1.9 0.7-3.5 0.1-4.1C87.8 27.5 86.7 27.5 85.1 28.2z"/><path class="st0" d="M84.9 49.8c0.7 0 1.4-0.6 1.4-1.4s-0.6-1.4-1.4-1.4 -1.4 0.6-1.4 1.4C83.5 49.2 84.1 49.8 84.9 49.8z"/><path class="st0" d="M84.9 57.7c-0.7 0-1.4 0.6-1.4 1.4s0.6 1.4 1.4 1.4 1.4-0.6 1.4-1.4S85.6 57.7 84.9 57.7z"/><path class="st0" d="M84.9 63.1c-0.7 0-1.4 0.6-1.4 1.4s0.6 1.4 1.4 1.4 1.4-0.6 1.4-1.4S85.6 63.1 84.9 63.1z"/><path class="st0" d="M85 19.7c1.9 0 3.3-1.5 3.3-3.3S86.8 13 85 13c-1.9 0-3.3 1.5-3.3 3.3S83.1 19.7 85 19.7zM85 13.6c1.5 0 2.7 1.2 2.7 2.7S86.5 19 85 19s-2.7-1.2-2.7-2.7S83.4 13.6 85 13.6z"/><path class="st0" d="M81 16.3c0-0.7 0.2-1.5 0.6-2.1l-6.8-1.9v7.1l6.6-1.4C81.3 17.5 81 17.1 81 16.3z"/><path class="st0" d="M59.3 58.7L59.3 58.7c0 0-2.4-3.3-4.3-3.2l-0.9 1.7C55.2 58.8 59.3 58.7 59.3 58.7z"/><path class="st0" d="M68.2 51.9l-1.9-0.7c-1.5 1.2-0.9 5.3-0.9 5.3l0 0C65.5 56.5 68.6 53.8 68.2 51.9z"/><path class="st0" d="M60.1 64.7L60.1 64.7c-2.6 3.7 4.8 6.3 5.1 1.7v-0.1c2.9 3.5 7.4-2.9 3.2-4.5v-0.1c4.2-1.5-0.2-7.9-3.2-4.5H65c-0.4-4.5-7.7-1.9-5.2 1.7C55.7 58.1 55.7 65.9 60.1 64.7zM62.7 58.2c2-0.6 4.1 0.5 4.7 2.4 0.6 2-0.5 4.1-2.4 4.7 -2 0.6-4.1-0.5-4.7-2.4C59.7 61 60.7 58.8 62.7 58.2z"/><path class="st0" d="M69.4 61.9c0 0 3.6 2.1 5.3 1.2l0.1-2C73.1 60.1 69.4 61.9 69.4 61.9L69.4 61.9z"/><path class="st0" d="M64.5 64.1c1.2-0.4 2-1.7 1.6-3 -0.4-1.2-1.7-2-3-1.6 -1.2 0.4-2 1.7-1.6 3C61.9 63.8 63.3 64.6 64.5 64.1zM63.3 60.3c0.9-0.2 1.7 0.2 2 1 0.2 0.9-0.2 1.7-1 2 -0.9 0.2-1.7-0.2-2-1C62 61.5 62.5 60.6 63.3 60.3z"/><path class="st0" d="M61.5 68.9c-0.1 0.2-0.2 0.6-0.5 0.9 0.1 0 0.1 0 0.2 0C61.4 69.1 61.5 68.9 61.5 68.9z"/><path class="st0" d="M54.2 67.7l1.2 1.6c1.9-0.2 3.7-4 3.7-4l0 0C59.2 65.3 55 65.9 54.2 67.7z"/><path class="st0" d="M65.6 67.4c0 0-1 4 0.4 5.5l2-0.5C68.4 70.5 65.6 67.4 65.6 67.4L65.6 67.4z"/><path class="st0" d="M107.2 67.4c-0.5-0.1-0.9-0.5-1.2-0.9 0.1 0.7 0.2 1.9 0 2.9 1.1 0.1 2.4 0.2 3.6 0.4 0-0.6-0.1-1.4-0.4-2.2 0-0.1 0-0.1-0.1-0.2 -0.4 0.1-0.7 0.1-1 0.1C107.8 67.5 107.6 67.4 107.2 67.4z"/><path class="st0" d="M109.9 48.8c0.4 0.7 0.4 1.6 0.4 2.5 0.6-1 1.2-1.6 2-2 -0.2-0.6-0.1-1.7 0-3.1 0-0.1 0-0.2 0-0.4h-0.1c-0.1 0.2-0.4 0.5-0.5 0.7C110.8 47.8 110.3 48.6 109.9 48.8z"/><path class="st0" d="M103.3 55.7c-1 0.4-1.9 1.5-2 2.6 0 0.6 0.2 1.4 1.4 1.9 0.1 0.1 0.2 0.2 0.2 0.5 0 0.1-0.2 0.2-0.4 0.2 -1.1 0.4-1.4 1.2-1.4 1.7 0 1.1 0.9 2.4 1.9 2.7 0.5 0.2 1.4 0.2 2.2-0.7l0.1-0.1h0.1 0.1c0.1 0 0.1 0 0.2 0 0.1 0.1 0.1 0.1 0.1 0.2 0.1 1.2 0.7 1.7 1.4 1.9 1.1 0.4 2.5-0.1 3.1-1 0.4-0.5 0.6-1.2-0.1-2.2 -0.1-0.1-0.1-0.4 0.1-0.5h0.1c0.1-0.1 0.2-0.1 0.4-0.1 1.2 0.4 1.9-0.1 2.2-0.6 0.6-0.9 0.6-2.4 0-3.2 -0.4-0.5-1-1-2.2-0.7 -0.1 0-0.2 0-0.4-0.1l0 0c-0.1-0.1-0.1-0.4-0.1-0.5 0.6-1.1 0.4-1.9 0-2.4 -0.7-0.9-2.1-1.2-3.1-0.9 -0.5 0.1-1.1 0.6-1.2 1.7 0.1 0.1 0.1 0.4 0 0.5 -0.1 0.1-0.4 0.1-0.5 0l-0.1-0.1C104.7 55.5 103.8 55.5 103.3 55.7zM105.6 59.8c0.2-0.9 1.2-1.4 2.1-1.1 0.9 0.2 1.4 1.2 1.1 2.1 -0.2 0.7-0.9 1.1-1.6 1.1 -0.1 0-0.4 0-0.5-0.1C105.8 61.7 105.3 60.7 105.6 59.8z"/><path class="st0" d="M111.2 54.8c0.4 0.5 0.6 1 0.5 1.6 0.6-1.1 2.1-3.1 3.6-3.2 0.2 0 0.4 0.1 0.4 0.4 0 0.2-0.1 0.4-0.4 0.4 -1.1 0.1-2.4 1.7-3.1 2.9 1.2-0.2 3.3-0.7 3.8-1.7 0.1-0.1 0.4-0.2 0.5-0.1 0.1 0.1 0.2 0.4 0.1 0.5 -0.6 1.4-2.9 1.9-4.1 2.1 0.5 0.1 0.9 0.5 1.2 1 0.4 0.5 0.5 1.1 0.5 1.7 0.6 0 3.7-0.2 4.7-2.1 0.6-1 0.5-2.4-0.4-4.1v-0.1c0-0.4 0.1-0.7 0.2-1.2 0.2-0.5 0.4-0.9 0.2-1.1 -0.1-0.1-0.5 0-0.9 0 -0.5 0.1-1 0.1-1.4-0.1 -1.6-1.4-2.9-2-3.8-1.7 -1.2 0.2-2.2 1.6-3.2 4C110.3 54 110.8 54.4 111.2 54.8z"/><path class="st0" d="M119.1 59.2c-0.7 0.6-1.6 1-2.5 1.2 1 0.2 2 0.5 2.7 1.1 0.5-0.5 1.6-0.6 2.9-0.9 0-0.1 0.1-0.2 0.1-0.4 -0.1 0-0.4-0.1-0.5-0.1C120.2 60 119.3 59.6 119.1 59.2z"/><path class="st0" d="M99.5 54.9c-0.6-0.7-1.1-1.6-1.4-2.6 -0.7 0.1-1.9-0.2-3.1-0.9 -0.2-0.1-0.5-0.2-0.6-0.2 0.2 0.2 0.5 0.6 0.7 0.9 1 1.1 1.5 1.9 1.7 2.4C97.6 54.3 98.6 54.5 99.5 54.9z"/><path class="st0" d="M119.5 63.1c-0.7-1.5-3.1-1.9-4.7-2.1h-0.4c-0.1 0.6-0.2 1.2-0.6 1.6 -0.4 0.5-0.7 0.7-1.2 0.9 1.2 0.4 3.5 1.1 4 2.5 0.1 0.2 0 0.4-0.2 0.5 -0.2 0.1-0.4 0-0.5-0.2 -0.4-1-2.4-1.7-3.7-2 0.6 1.1 1.7 2.9 2.9 3.1 0.2 0 0.4 0.2 0.2 0.4 0 0.1-0.1 0.4-0.4 0.4l0 0c-1.4-0.2-2.6-2-3.2-3.2 0 0.5-0.1 0.9-0.5 1.4 -0.4 0.4-0.7 0.7-1.2 1 0 0.1 0 0.1 0.1 0.2 0.2 0.6 0.6 1.7 1.4 2.7 1.4 0.2 2.9 0.4 4.2 0.6 0.4-0.2 0.9-0.6 1.2-1 0.4-0.5 1.1-0.5 1.6-0.4 0.4 0 0.6 0 0.7-0.1s0-0.5-0.1-0.9c-0.1-0.5-0.4-1-0.1-1.5C119.7 65.2 120 63.9 119.5 63.1z"/><path class="st0" d="M121.8 61.6c-0.7 0.1-1.6 0.4-2.1 0.6 0.1 0.1 0.2 0.4 0.4 0.5 0.2 0.5 0.4 1.2 0.2 2C120.8 63.8 121.3 62.8 121.8 61.6z"/><path class="st0" d="M93.9 59.1L93.9 59.1l-0.1 0.2c-0.4 0.4-0.7 0.5-1 0.6 -0.4 0.1-0.5 0.1-0.5 0.5 0 0.2 0.2 0.4 0.6 0.6s0.7 0.5 1 0.9v0.1c0.5 2 1.1 3.1 2 3.6 1 0.5 2.6 0.1 5-1.2 -0.2-0.5-0.5-1.1-0.5-1.7 0-0.6 0.2-1 0.5-1.5 -0.9 0.4-2.2 1-3.5 1 -0.5 0-0.9-0.1-1.2-0.2 -0.1-0.1-0.2-0.4-0.1-0.5 0.1-0.1 0.4-0.2 0.5-0.1 1 0.5 3-0.1 4.1-0.7 -1.2-0.5-3.2-1.1-4.1-0.6 -0.1 0.1-0.4 0-0.5-0.1s0-0.4 0.1-0.5c1.4-0.9 3.8 0.1 5 0.6 -0.4-0.5-0.5-1-0.5-1.6 0-0.6 0.2-1.1 0.5-1.6 -0.2-0.1-0.4-0.2-0.6-0.4 -1.4-0.7-3-1.6-4.3-1.1C95.3 55.7 94.4 57 93.9 59.1z"/><path class="st0" d="M101.6 48.4c-1.7 0.7-2.6 1.7-2.7 2.9 -0.2 2.1 2.2 4.2 2.9 4.7 0.4-0.5 0.9-0.9 1.5-1 0.4-0.1 0.7-0.1 1.1-0.1 -1-0.9-2.4-2.2-2.4-3.6 0-0.2 0.1-0.4 0.4-0.4l0 0c0.2 0 0.4 0.1 0.4 0.4 0 1.1 1.5 2.6 2.5 3.3 -0.1-1.4-0.4-3.3-1.4-4 -0.1-0.1-0.2-0.4-0.1-0.5 0.1-0.1 0.4-0.2 0.5-0.1 1.2 0.9 1.6 3.2 1.7 4.5 0.2-0.5 0.7-0.9 1.2-1 0.6-0.2 1.2-0.2 1.9 0 0.2-0.6 1.1-3.6-0.2-5.2 -0.7-0.9-2.2-1.2-4.2-0.9l0 0 0 0c-0.4 0-0.6-0.2-1-0.5 -0.2-0.2-0.6-0.5-0.9-0.5 -0.2 0.1-0.2 0.4-0.4 0.7C102.1 47.6 102 48.1 101.6 48.4L101.6 48.4z"/><path class="st0" d="M105.3 69.3c0.1-0.9 0-2.1-0.1-2.9 -0.6 0.7-1.2 1.7-1.6 2.7C104.2 69.1 104.7 69.3 105.3 69.3z"/><path class="st0" d="M94.8 39c-4 1.1-5.6-1.1-5.7-1.6 0-0.6 7.1-8.3 0.5-12.3 -0.4-0.9-0.1-4.2-0.1-4.2l8.1 1.5V9.7l-8.2 1.6 2-10.9h-6.2l0 0h-7.2l3 10.9 -8.2-1.6v12.5l8.1-1.5c0 0 0.1 3.2-0.1 4.2 -6.4 4 0.5 11.8 0.5 12.3 0 0.6-1.6 2.7-5.7 1.6C72.5 38 19.5 7.1 41.2 73c3.3-0.7 6.8-1.4 10-2 0 0-0.1 0-0.1-0.1 -0.6-0.7 0.2-1 0.5-2.1 -2.9-6.8 2.5-6.6 5.1-7.1 0 0-9.1-0.1-5.2-6.8 0.1-0.9-0.9-1.7-0.4-2.4 0.4-0.6 1.9-0.1 2.4-0.4 5.6-5.8 8.1 2.6 8.1 2.6 -1.4-5.7 0.5-7.3 5-6.9 0.7 0 1.4-1.4 2-1.2 0.9 0.2 0.6 1.9 1.1 2.4 6.8 3.3 0.1 8.4 0.1 8.4 1.2-0.6 3.5-2 5.2-1.7l0 0 0 0c1.4 0.2 2.4 1.2 2.7 4.1 0.1 0.9 1.7 1.1 1.7 1.9 0 0.9-1.6 0.9-1.6 1.9 -1.1 6.9-6.6 3.3-7.9 2.5 1.1 0.9 1.9 1.6 2.2 2.4 0.1 0 0.4 0 0.5 0l-0.4-0.6c0.5 0.2 1 0.5 1.4 0.6 2.7-0.2 5.1-0.4 6.9-0.5V39.5l0.2-0.1c0.1 0 2.4-0.7 4-0.7 1.6 0 4 0.7 4 0.7l0.2 0.1v28.4c1.5 0.1 3.2 0.1 5.2 0.4 0.6-0.6 1.4-1.5 1.6-2 -0.1 0-0.2 0-0.2-0.1 -1.1-0.5-2-1.9-2.5-4 -0.1-0.2-0.4-0.4-0.7-0.5 -0.5-0.2-1-0.6-1-1.2 0-0.9 0.5-1.1 0.9-1.2 0.2-0.1 0.5-0.1 0.6-0.4 0.6-2.4 1.5-3.7 2.7-4.2h0.1c-0.1-0.4-1-1.4-1.5-2 -1.1-1.4-1.5-1.7-1.2-2.1 0.2-0.4 0.9-0.1 2 0.4 0.9 0.4 2.4 1.1 2.7 0.9l0 0c0-0.1 0-0.2 0-0.4 0.1-1.4 1.2-2.6 3.1-3.5 0.1-0.2 0.2-0.5 0.4-0.9 0.1-0.4 0.2-0.7 0.5-1 -5.1 0.6-7.8 2.1-11.3 2.9 -0.1-1-0.2-1.7 0-2.2 4.2-0.6 10.2-3.7 15.1-5.8C141 26 123.2 65.7 123.2 65.7s-1.2-0.2-3.2-0.6c-0.1 0.6-0.4 1.4-0.9 2.2 -0.1 0.1 0 0.5 0.1 0.9 0.2 0.5 0.4 1.1 0.1 1.6 -0.4 0.5-0.9 0.5-1.4 0.4 -0.5 0-0.7 0-1 0.1 -0.2 0.2-0.5 0.5-0.7 0.7 4 0.6 8.2 1.4 12.4 2.4C150.7 7.3 97.6 38.3 94.8 39zM75.1 54.8L72 55.9c2.1-2.6 1.4-3 1.7-3 1.6-0.4 4-2 4.1-1.7C78.2 51.3 75.7 54 75.1 54.8zM79.7 48.8c-5.2-1.1-8.7-3.6-20.7-3.1 0.6 1 1.5 2.9 1.7 3.3l-0.1 3.2c-1.6-3-2.2-2.4-2.1-2.7 0.1-1.1-0.1-2.9-0.1-3.8 -0.2 0-0.6 0-0.9 0 -13 0.7-11.5 9.7-9.1 15.5 1-0.1 2-0.4 2.4-0.4l3 1.1c-3.3 0.6-2.9 1.4-3.3 1.2 -0.4-0.2-1-0.4-1.5-0.5 0.4 0.9 0.9 1.6 1.1 2.2 -2.1 0.4-3.3 0.6-3.3 0.6s-18-39.7 17.7-24.8c5 2.1 11 5.2 15.1 5.8C79.9 47.1 79.8 47.8 79.7 48.8zM74.6 20.4L74.6 20.4c-0.1 0-0.2 0-0.4-0.1 -0.1-0.1-0.1-0.2-0.1-0.4v-8.2c0-0.1 0-0.2 0.1-0.4 0.1-0.1 0.2-0.1 0.4-0.1l7.3 2.1c0.1 0 0.1 0.1 0.2 0.1 0.2-0.2 0.5-0.4 0.7-0.6l0 0L80.1 2.3c0-0.1 0-0.2 0.1-0.4 0.1-0.1 0.2-0.1 0.4-0.1l0 0h8.1c0.1 0 0.2 0 0.4 0.1s0.1 0.2 0.1 0.4l-2 10.4c0 0 0 0.1-0.1 0.1 0.2 0.1 0.5 0.4 0.7 0.6 0 0 0.1 0 0.1-0.1l7.8-2c0.1 0 0.2 0 0.4 0.1 0.1 0.1 0.1 0.2 0.1 0.4V20c0 0.1 0 0.2-0.1 0.4 -0.1 0-0.1 0.1-0.2 0.1 0 0 0 0-0.1 0l-7.6-1.6c0 0-0.1 0-0.1-0.1 -0.7 0.9-1.7 1.4-3 1.4s-2.2-0.5-3-1.4c0 0 0 0-0.1 0L74.6 20.4zM85.2 36.8C85.2 36.8 85.1 36.8 85.2 36.8c-1.2 0-2.6-1.9-3.6-3.7 -0.5-0.9-1.7-4-0.4-5.5 0.7-0.7 2-0.9 3.7-0.2 1.9-0.7 3.2-0.7 4 0 1.2 1.2 0.5 3.8 0.1 4.8C88.2 34.4 86.6 36.6 85.2 36.8z"/><path class="st0" d="M97 68.5c0.6-0.2 1-0.2 1.4-0.2 0.2-0.9 0.7-1.7 1.2-2.4 -1 0.4-2 0.6-2.9 0.6 -0.1 0.5-0.6 1.2-1.4 1.9C95.9 68.4 96.5 68.4 97 68.5z"/><path class="st0" d="M99 68.6c1.2 0.1 2.5 0.2 3.8 0.4 0.2-1.1 1.1-2.2 1.7-3 -0.5 0.1-1.1 0.1-1.7 0 -0.5-0.2-1-0.6-1.4-1C101 65.4 99.2 66.9 99 68.6z"/><path class="st0" d="M113 45.7c0 0.1 0 0.2 0 0.5 -0.1 0.9-0.2 2.4 0 2.7 1.2-0.2 2.7 0.2 4.5 1.9 0.1 0.1 0.5 0 0.9 0 0.5-0.1 1.1-0.1 1.5 0.2 0.5 0.6 0.1 1.4-0.1 1.9 -0.1 0.2-0.2 0.6-0.2 0.7 1 1.9 1.1 3.5 0.4 4.7 0 0.1-0.1 0.1-0.1 0.2v0.1c0.2 0.2 1.6 0.6 2.5 0.9 0.2 0 0.4 0.1 0.5 0.1C124.5 54 124.9 46.4 113 45.7z"/><path class="st0" d="M103.2 45.8c0.2 0.1 0.5 0.4 0.7 0.5 0.1 0.1 0.4 0.4 0.5 0.4 2.2-0.4 3.8 0 4.8 1.1 0.1 0.1 0.1 0.2 0.2 0.2l0 0c0.2-0.1 1.1-1.4 1.5-2.1 0.1-0.1 0.1-0.2 0.2-0.4C108.1 45.6 105.4 45.6 103.2 45.8z"/><path class="st0" d="M102.6 74.5c0.2 0.1 0.5-0.1 0.9-0.4 0.2-0.2 0.6-0.5 1.1-0.6h0.1 0.1c0.6 0 1.6 0 2.5-0.2 -1.9-0.2-3.6-0.5-5.5-0.6 0.1 0.2 0.1 0.5 0.1 0.7C102.1 74 102.1 74.3 102.6 74.5z"/><path class="st0" d="M111.8 75c0.1 0.2 0.2 0.4 0.4 0.6 0-0.4 0-0.9 0-1.2 0-0.2 0-0.4 0-0.6 -0.4 0-0.6-0.1-1-0.1C111.3 74.1 111.5 74.6 111.8 75z"/><path class="st0" d="M128.4 76.8c-0.2-0.5-7.2-1.6-15.6-2.9 0 0.1 0 0.4 0 0.5 0 1.7 0 2.4-0.4 2.5h-0.1c-0.4 0-0.6-0.5-1.1-1.6 -0.2-0.5-0.6-1.2-0.9-1.7 -0.5-0.1-1-0.1-1.5-0.2 -1.2 0.9-3 0.9-3.8 0.9h-0.1c-0.2 0.1-0.5 0.2-0.7 0.5 -0.4 0.2-0.7 0.5-1.2 0.5 -0.1 0-0.2 0-0.4-0.1 -0.9-0.4-1-1.1-1.1-1.7 0-0.1 0-0.4-0.1-0.5 -0.2-0.1-0.5-0.2-0.7-0.5 -6.1-0.6-11.9-1-15.6-1 -2.1 0-4.5 0-6.8 0.2 0.4 0.4 0.5 0.7 0.5 0.7 -0.1 0.1-1-0.2-2-0.7 -1.4 0.1-2.6 0.1-4 0.2 -0.6 1.2-2 2.1-2.6 2.6 -0.6 0.7-0.5 1.9-1.2 2.1 -1 0.2-1.5-0.7-2.1-1.2 -3.3 0.5-4.7-0.9-5.1-2.5 -0.1 0-0.4 0-0.5 0 0.2 1.5 0.7 1.4 0.5 1.6 -0.7 1.4-1.2 3-1.6 3.8l3.3 1.6 -4 3.3L54.7 81l4-3.3 0.6 0.4c-0.1-1.1-0.1-3.1-0.1-3.7l0.5-0.9c-9.3 1.2-17 2.6-17.9 3.3 -2.2 4.8 2.6 12.6 2.6 12.6s26-3.8 41.5-3.8 39.9 3.8 39.9 3.8S130.7 79.7 128.4 76.8zM47.7 85.1c-1 0.2-2.1-0.7-2.5-2.4 -0.4-1.6 0-3 1-3.2 1-0.2 2.1 0.7 2.5 2.4C49 83.4 48.6 84.9 47.7 85.1zM72.6 81.2c-2.2 0.2-4.1-0.5-4.2-1.6 -0.1-1.1 1.5-2.4 3.7-2.6 2.2-0.2 4.1 0.5 4.2 1.6C76.4 79.8 74.8 80.9 72.6 81.2zM84.9 81.4l-4.3-2.9 4.3-2.9 4.2 2.9L84.9 81.4zM97.6 81.3c-2.1-0.4-3.7-1.5-3.6-2.7 0.1-1.1 2.1-1.7 4.2-1.5 2.2 0.4 3.7 1.6 3.6 2.7C101.7 80.9 99.9 81.7 97.6 81.3zM110 83.5l-3.6-3.7 4.8-1.9 3.6 3.7L110 83.5zM123.6 83.2c-0.5 1.5-1.7 2.5-2.7 2.1 -0.9-0.4-1.2-1.9-0.6-3.3s1.7-2.5 2.7-2.1C123.8 80.1 124.2 81.5 123.6 83.2z"/><path class="st0" d="M71.4 129c-3.4 0-6-2.3-6-5.3 0-3.4 2.6-4.2 4-4.5 -0.8-0.5-1.3-1.2-1.3-2.3 0-1.4 1.2-2.8 3.3-2.8 2.1 0 3.1 1.7 3.1 2.1 0 0.1-0.1 0.2-0.2 0.2 -0.3 0-0.9-1-2.3-1s-2.5 0.9-2.5 2.1c0 0.7 0.2 1.2 0.5 1.7 0.7 0.1 2.6 0.9 2.6 1.6 0 0.1-0.1 0.2-0.2 0.2 -0.2 0-0.7-0.3-1.4-0.3 -2.1 0-3.3 1.4-3.3 3.5 0 2.5 1.9 4.2 4.3 4.2 2.8 0 4.3-1.9 4.3-3.5 0-1.2-0.6-1.9-0.9-2.3 -0.3 0.2-1.1 0.7-1.8 1.3 -1 0.7-1.2 1.4-1.3 1.9 -0.1 0.6-0.1 0.8-0.2 0.8 -0.3 0-0.4-0.8-0.4-1.2 0-2.6 1.5-3.1 3.5-4.4 2.4-1.5 3.1-1.7 3.1-2.4 -0.1 0.1-0.4 0.2-0.8 0.2 -0.7 0-1-0.4-1-0.9 0-0.6 0.6-1 1.1-1 0.8 0 1.3 0.7 1.3 1.5 0 1.9-1.7 3.1-2.8 3.8 0.3 0.5 0.9 1.2 0.9 2.4C77 127.4 74.4 129 71.4 129"/><path class="st0" d="M5.3 122.4c-0.2-0.3-0.3-0.4-0.3-0.7 0-0.1 0.1-0.2 0.3-0.2s0.8 0.1 1.3 0.1c2.1 0 3.9-0.6 3.9-2.7 0-2.5-2.2-3.9-4.3-3.9 -0.8 0-1.3 0.2-1.7 0.2 -0.1 1.6-0.1 4.5-0.1 6.4 0 1.8 0 4.8 0.1 6.4 0.3 0 1.5 0.1 2 0.2 0.1 0 0.1 0.1 0.1 0.2 0 0.1-0.1 0.2-0.2 0.2 -0.2 0-1.5-0.1-3.1-0.1 -1.8 0-3 0.1-3.1 0.1 -0.1 0-0.2-0.1-0.2-0.2 0-0.1 0.1-0.1 0.1-0.2 0.4-0.2 1.7-0.2 2-0.2 0.1-1.5 0.1-4.4 0.1-6.4 0-2 0-4.9-0.1-6.4 -0.3 0-1.6-0.1-2-0.2C0 115 0 114.9 0 114.8c0-0.1 0.1-0.2 0.2-0.2 0.4 0 2.4 0.1 3.2 0.1s2.6-0.1 3.9-0.1c2.6 0 5.5 0.7 5.5 3.4 0 2.9-3 3.8-4.9 4l3.1 4.3c0.7 0.9 1.2 1.7 2 1.7 0.6 0 0.7-0.2 0.9-0.2 0.1 0 0.2 0.1 0.2 0.2 0 0.3-1.2 1.1-2.5 1.1s-1.9-0.9-2.7-1.9L5.3 122.4z"/><path class="st0" d="M30.8 121.6c0 3.8-3.1 7.3-7.6 7.3 -5.3 0-8.1-3-8.1-7.3 0-4.5 3.8-7.3 8.1-7.3C28 114.3 30.8 117.4 30.8 121.6M28 121.6c0-2.6-1-6.8-4.9-6.8 -3.7 0-5.3 3-5.3 6.8 0 2.7 1.1 6.8 5.3 6.8C26.7 128.4 28 124.7 28 121.6"/><path class="st0" d="M42.7 118.5c0 0.3 0 0.4-0.2 0.4 -0.3 0-0.3-1.3-0.3-1.6 -1.1-0.9-2.5-1.7-4.6-1.7 -1.3 0-3.7 0.3-3.7 2.4 0 2.8 4.5 2 6.9 2.8 1.7 0.6 2.6 1.8 2.6 3.7 0 2.9-2.2 4.5-5.4 4.5 -1.7 0-2.5-0.2-4.1-0.8 -0.1 0.4-0.1 1.8-0.4 1.8 -0.1 0-0.2-0.1-0.2-0.2 0-0.3 0.1-1.9 0.1-2.8 0-1-0.1-2.8-0.1-3 0-0.1 0-0.2 0.1-0.2 0.3 0 0.4 1.1 0.4 1.8 1.5 1.2 2.9 2.1 5.3 2.1 1.9 0 3.5-0.6 3.5-2.1 0-3.2-5.6-2.1-7.6-3.4 -1.1-0.7-1.8-2.1-1.8-3.5 0-2.8 2.5-4.3 5.2-4.3 1.7 0 2.5 0.2 3.9 0.7 0.1-1 0.2-1.7 0.4-1.7 0.1 0 0.2 0.1 0.2 0.2 0 0.1-0.2 1.9-0.2 2.8v2H42.7z"/><path class="st0" d="M49.5 121.7c0 1.9 0 4.7 0.1 6.2 0.3 0 0.7 0.1 1 0 2-0.1 4.8-0.3 6.3-1 0.1-0.4 0.1-1.2 0.2-1.5 0-0.1 0.1-0.2 0.2-0.2 0.2 0 0.2 0.1 0.2 0.3 0 0.2-0.1 1-0.1 1.7s0.1 1.6 0.1 1.9c0 0.1-0.1 0.3-0.2 0.3 -0.1 0-0.2-0.1-0.2-0.2 -0.1-0.2-0.1-0.4-0.1-0.7 -1.5-0.2-2.9-0.3-6.3-0.3 -1.5 0-2.8 0-3.7 0.1 -0.9 0-1.6 0.1-1.7 0.1 -0.1 0-0.2-0.1-0.2-0.2s0.1-0.1 0.1-0.2c0.4-0.1 1.7-0.2 2-0.2 0.1-1.5 0.1-4.4 0.1-6.4 0-2 0-4.9-0.1-6.4 -0.3 0-1.6-0.1-2-0.2 -0.1 0-0.1-0.1-0.1-0.2 0-0.1 0.1-0.2 0.2-0.2s0.8 0 1.7 0.1c0.9 0 2.2 0.1 3.7 0.1 3 0 4.6-0.1 6.2-0.2 0-0.3 0.1-0.7 0.2-0.8 0-0.1 0.1-0.1 0.2-0.1s0.2 0.1 0.2 0.3c0 0.3-0.1 1.2-0.1 1.8 0 0.7 0.1 1.5 0.1 1.9 0 0.2-0.1 0.3-0.2 0.3 -0.1 0-0.2-0.1-0.2-0.2 -0.1-0.4-0.2-1.1-0.2-1.5 -1.2-0.7-4-0.9-6.1-1 -0.3 0-0.7 0-1 0 -0.3 1.5-0.3 4.3-0.3 6.3h1.1c1.3 0 4.4-0.3 5.5-0.8 0-0.3 0.1-0.8 0.2-1.2 0-0.1 0.1-0.1 0.2-0.1 0.1 0 0.2 0.1 0.2 0.2 0 0.2-0.1 0.9-0.1 2 0 1.1 0.1 1.9 0.1 2.2 0 0.1 0 0.2-0.2 0.2 -0.1 0-0.1 0-0.2-0.1 -0.2-0.3-0.2-1.2-0.3-1.6 -1.1-0.3-4-0.6-5.5-0.6C50.5 121.7 49.5 121.7 49.5 121.7z"/><path class="st0" d="M98.5 119.8c0 0.2 0 0.3-0.2 0.3 -0.3 0-0.3-1.6-0.3-2 -0.6-0.9-1.8-3.2-4.6-3.2 -3.8 0-5 3.6-5 6.8 0 3.4 1.7 6.4 5.3 6.4 3.5 0 4.7-2.4 5.2-2.4 0.1 0 0.1 0 0.1 0.1 0 0.4-2.1 3.1-5.9 3.1 -5.3 0-7.2-3.7-7.2-6.8 0-4.8 3.8-7.6 7.6-7.6 2.6 0 3.7 0.7 4.7 1.1 0.2-1.2 0.2-1.9 0.6-1.9 0.1 0 0.2 0.1 0.2 0.2 0 0.1-0.3 2.9-0.3 3.8L98.5 119.8 98.5 119.8z"/><path class="st0" d="M106 122.5c-0.2-0.3-0.3-0.4-0.3-0.7 0-0.1 0.1-0.2 0.3-0.2s0.8 0.1 1.3 0.1c2.1 0 3.9-0.6 3.9-2.7 0-2.5-2.2-3.9-4.3-3.9 -0.8 0-1.3 0.2-1.7 0.2 -0.1 1.6-0.1 4.5-0.1 6.4 0 1.8 0 4.8 0.1 6.4 0.3 0 1.5 0.1 2 0.2 0.1 0 0.1 0.1 0.1 0.2s-0.1 0.2-0.2 0.2c-0.2 0-1.5-0.1-3.1-0.1 -1.8 0-3 0.1-3.1 0.1 -0.1 0-0.2-0.1-0.2-0.2s0.1-0.1 0.1-0.2c0.4-0.2 1.7-0.2 2-0.2 0.1-1.5 0.1-4.4 0.1-6.4 0-2 0-4.9-0.1-6.4 -0.3 0-1.6-0.1-2-0.2 -0.1 0-0.1-0.1-0.1-0.2 0-0.1 0.1-0.2 0.2-0.2 0.4 0 2.4 0.1 3.2 0.1s2.6-0.1 3.9-0.1c2.6 0 5.5 0.7 5.5 3.4 0 2.9-3 3.8-4.9 4l3.1 4.3c0.7 0.9 1.2 1.7 2 1.7 0.6 0 0.8-0.2 0.9-0.2 0.1 0 0.2 0.1 0.2 0.2 0 0.3-1.2 1.1-2.5 1.1 -1.2 0-1.9-0.9-2.7-1.9L106 122.5z"/><path class="st0" d="M131.7 121.7c0 3.8-3.1 7.3-7.6 7.3 -5.3 0-8.1-3-8.1-7.3 0-4.5 3.8-7.3 8.1-7.3C128.9 114.4 131.7 117.6 131.7 121.7M128.9 121.7c0-2.6-1-6.8-4.9-6.8 -3.7 0-5.3 3-5.3 6.8 0 2.7 1.1 6.8 5.3 6.8C127.5 128.5 128.9 124.8 128.9 121.7"/><path class="st0" d="M143.2 119.7L143.2 119.7c0.2-0.9 0.9-3.4 1-4.3 -0.1 0-0.8-0.1-1-0.2 -0.1 0-0.1-0.1-0.1-0.2 0-0.1 0.1-0.2 0.2-0.2 0.2 0 1.9 0.1 4.3 0.1 2.9 0 5-0.1 5.3-0.1 0.1 0 0.2 0.1 0.2 0.2s-0.1 0.1-0.1 0.2c-0.3 0.1-1.3 0.2-1.6 0.2 -1.6 2.8-4.8 10.2-5.9 12.9 -0.1 0.4-0.2 0.8-0.6 0.8 -0.2 0-0.3-0.4-0.7-1l-2-4.9c-0.6 1.5-1.8 4.4-2.2 5.5 -0.1 0.3-0.1 0.6-0.4 0.6 -0.2 0-0.2-0.2-0.4-0.4l-5.5-13.1c-0.2 0-1.3-0.1-1.7-0.2 -0.1 0-0.1-0.1-0.1-0.2s0.1-0.2 0.2-0.2c0.3 0 2.2 0.1 5.3 0.1 2.9 0 4.8-0.1 5-0.1 0.1 0 0.2 0.1 0.2 0.2s-0.1 0.1-0.1 0.2c-0.2 0.1-0.7 0.1-0.9 0.1L143.2 119.7zM142 122.3l-2.8-6.9h-2.8l4.1 10.6L142 122.3zM145.8 126.1c0.8-1.7 1.6-4 2.5-6.3 0.8-2.1 1.2-3.7 1.3-4.4h-3.7c-0.6 1-1.8 3.8-2.4 5L145.8 126.1z"/><path class="st0" d="M166.8 121.9c0-2.6-0.2-5.3-0.4-6.6 -0.3 0-1.7-0.1-2.2-0.2 -0.1 0-0.1-0.1-0.1-0.2 0-0.1 0.1-0.2 0.2-0.2 0.1 0 1.3 0.1 3 0.1 1.5 0 2.5-0.1 2.6-0.1 0.1 0 0.2 0.1 0.2 0.2 0 0.1-0.1 0.1-0.1 0.2 -0.4 0.1-1.5 0.2-1.8 0.2 -0.3 1.3-0.6 4-0.6 6.6 0 4 0.1 6.6 0.1 6.8 0 0.1 0 0.2-0.1 0.2 -0.2 0-0.2-0.1-3.6-3.9l-6.6-7.5c0 5.8 0.2 8.2 0.6 10.5 0.3 0 1.7 0.1 2.2 0.2 0.1 0 0.1 0.1 0.1 0.2s-0.1 0.2-0.2 0.2 -1.3-0.1-3-0.1c-1.3 0-2.5 0.1-2.6 0.1 -0.1 0-0.2-0.1-0.2-0.2s0.1-0.1 0.1-0.2c0.4-0.1 1.5-0.2 1.8-0.2 0.3-2.4 0.6-4.6 0.6-11.1 -0.8-0.8-1.5-1.5-2.2-1.7 -0.3-0.1-0.6-0.1-0.6-0.3 0-0.1 0.1-0.2 0.3-0.2 0.3 0 1 0.1 1.8 0.1 0.4 0 1.2-0.1 1.7-0.1l9.2 10.3v-3.1H166.8z"/></svg>